<?xml version="1.0" standalone="no"?>
<!DOCTYPE svg PUBLIC "-//W3C//DTD SVG 20010904//EN"
 "http://www.w3.org/TR/2001/REC-SVG-20010904/DTD/svg10.dtd">
<svg version="1.0" xmlns="http://www.w3.org/2000/svg"
 width="626.000000pt" height="626.000000pt" viewBox="0 0 626.000000 626.000000"
 preserveAspectRatio="xMidYMid meet">
<metadata>
Created by potrace 1.14, written by Peter Selinger 2001-2017
</metadata>
<g transform="translate(0.000000,626.000000) scale(0.100000,-0.100000)"
fill="#000000" stroke="none">
<path d="M4704 4846 c-32 -14 -408 -381 -1389 -1356 -308 -306 -584 -579 -613
-605 l-53 -49 -127 125 c-70 69 -311 307 -535 529 l-408 405 -67 2 -67 3 -223
-218 -222 -217 0 -71 0 -72 334 -343 c376 -388 1172 -1180 1228 -1223 51 -38
114 -38 171 0 51 34 1249 1226 1971 1959 338 344 529 546 545 575 21 41 22 49
12 90 -11 39 -36 69 -209 241 -108 108 -211 203 -227 211 -47 24 -87 29 -121
14z"/>
</g>
</svg>
